# xmcd
#
# Track frame offsets: 
#        150
#        31307
#        44350
#        56752
#        70732
#        83627
#        96022
#        107857
#        121435
#        134580
#        147062
#        158957
#        171662
#        184252
#        197225
#        211045
#        225600
#        237637
#        252192
#        267007
#        280522
#        293722
#        330302
#
# Disc length: 4639 seconds
#
# Revision: 1
# Processed by: cddbd v1.5.2PL0 Copyright (c) Steve Scherf et al.
# Submitted via: ExactAudioCopyFreeDBPlugin 1.0
#
DISCID=52121d17
DTITLE=Stevie Wonder - At the Close of the Century
DYEAR=1999
DGENRE=Rhythm and Blues
TTITLE0=Fingertips Pts. 1 and 2
TTITLE1=Uptight (Everything's Alright)
TTITLE2=Nothing's Too Good for My Baby
TTITLE3=Blowin' in the Wind
TTITLE4=A Place in the Sun
TTITLE5=Hey Love
TTITLE6=I Was Made to Love Her
TTITLE7=Until You Come Back to Me (That's What I'm Gonna Do)
TTITLE8=I'm Wondering
TTITLE9=Shoo-Be-Doo-Be-Doo-Da-Day
TTITLE10=You Met Your Match
TTITLE11=For Once in My Life
TTITLE12=I Don't Know Why
TTITLE13=My Cherie Amour
TTITLE14=Yester-Me, Yester-You, Yesterday
TTITLE15=Never Had a Dream Come True
TTITLE16=Signed, Sealed, Delivered I'm Yours
TTITLE17=Heaven Help Us All
TTITLE18=We Can Work it Out
TTITLE19=If You Really Love Me
TTITLE20=Never Dreamed You'd Leave in Summer
TTITLE21=Superwoman (Where Were You When I Needed You)
TTITLE22=I Love Every Little Thing About You
EXTD=
EXTT0=
EXTT1=
EXTT2=
EXTT3=
EXTT4=
EXTT5=
EXTT6=
EXTT7=
EXTT8=
EXTT9=
EXTT10=
EXTT11=
EXTT12=
EXTT13=
EXTT14=
EXTT15=
EXTT16=
EXTT17=
EXTT18=
EXTT19=
EXTT20=
EXTT21=
EXTT22=
PLAYORDER=
